<svg width="32" height="32" viewBox="0 0 32 32" fill="none" xmlns="http://www.w3.org/2000/svg">
<g clip-path="url(#clip0_22_2)">
<path d="M16.6249 5.58251C16.49 5.35251 16.2454 5.21001 15.9782 5.21001C15.7111 5.21001 15.4664 5.35251 15.3316 5.58251L9.48458 15.6225C9.34976 15.855 9.34976 16.145 9.48458 16.3775L15.3316 26.415C15.4664 26.645 15.7111 26.7875 15.9782 26.7875C16.2454 26.7875 16.49 26.645 16.6249 26.415L22.4719 16.3775C22.6067 16.145 22.6067 15.855 22.4719 15.6225L16.6249 5.58251ZM15.9782 24.55L12.121 17.93L15.6062 19.925C15.7211 19.99 15.8484 20.025 15.9782 20.025C16.1081 20.025 16.2354 19.9925 16.3502 19.925L19.8355 17.93L15.9782 24.55ZM15.9782 18.4075L11.1898 15.67L15.9782 7.45001L20.7667 15.67L15.9782 18.4075Z" fill="white"/>
<path d="M15.9782 0.25C7.30505 0.25 0.249664 7.315 0.249664 16C0.249664 24.685 7.30505 31.75 15.9782 31.75C24.6514 31.75 31.7068 24.685 31.7068 16C31.7068 7.315 24.6514 0.25 15.9782 0.25ZM15.9782 30.25C8.13143 30.25 1.74762 23.8575 1.74762 16C1.74762 8.1425 8.13143 1.75 15.9782 1.75C23.825 1.75 30.2088 8.1425 30.2088 16C30.2088 23.8575 23.825 30.25 15.9782 30.25Z" fill="white"/>
</g>
<defs>
<clipPath id="clip0_22_2">
<rect width="31.9565" height="32" fill="white"/>
</clipPath>
</defs>
</svg>
